<?xml version="1.0" encoding="UTF-8" standalone="yes"?>
<svg xmlns:xlink="http://www.w3.org/1999/xlink" xmlns="http://www.w3.org/2000/svg" focusable="false" preserveAspectRatio="xMinYMin" width="1777" height="830" viewBox="-1086.41 -412.02 1776.7800000000002  830.04" style="background-color:white"><path d="M-466.2,257.5  C-466.2,271.4 ,-466.2,368.5  -494.2,368.5 " stroke-width="2" stroke="#345780" stroke-dasharray="" stroke-linecap="" stroke-opacity="1" fill="none" fill-opacity="0" visibility="visible" style="opacity: 1;"/><rect width="76" height="36" rx="0" ry="0" x="-38" y="-17" stroke-width="1" stroke="#FF9933" stroke-dasharray="" stroke-linecap="" fill="#CC0033" stroke-opacity="0.4" fill-opacity="0.4" visibility="hidden" style="opacity: 0;"/><path d="M-299.9,-20.5  C-273.7,29.4  -247.4,78.7  -221.2,128.0   -247.4,79.1  -273.7,30.1  -299.9,-19.5  Z" stroke-width="1" stroke="#CC0033" stroke-dasharray="" stroke-linecap="" stroke-opacity="0.4" fill-opacity="0.4" visibility="hidden" style="opacity: 0;"/><path d="M-149.8,-38.0  C-99.8,-25.0  -49.9,-12.5  0.0,0.0   -49.9,-12.1  -99.8,-24.3  -149.8,-37.0  Z" stroke-width="1" stroke="#CC0033" stroke-dasharray="" stroke-linecap="" stroke-opacity="0.4" fill-opacity="0.4" visibility="hidden" style="opacity: 0;"/><path d="M-466.2,257.5  C-466.2,266.8 ,-466.2,331.5  -494.2,331.5 " stroke-width="2" stroke="#345780" stroke-dasharray="" stroke-linecap="" stroke-opacity="1" fill="none" fill-opacity="0" visibility="visible" style="opacity: 1;"/><path d="M-466.2,257.5  C-466.2,262.1 ,-466.2,294.5  -494.2,294.5 " stroke-width="2" stroke="#345780" stroke-dasharray="" stroke-linecap="" stroke-opacity="1" fill="none" fill-opacity="0" visibility="visible" style="opacity: 1;"/><path d="M-466.2,257.5  C-466.2,257.5 ,-466.2,257.5  -494.2,257.5 " stroke-width="2" stroke="#345780" stroke-dasharray="" stroke-linecap="" stroke-opacity="1" fill="none" fill-opacity="0" visibility="visible" style="opacity: 1;"/><path d="M-466.2,257.5  C-466.2,252.9 ,-466.2,220.5  -494.2,220.5 " stroke-width="2" stroke="#345780" stroke-dasharray="" stroke-linecap="" stroke-opacity="1" fill="none" fill-opacity="0" visibility="visible" style="opacity: 1;"/><path d="M-466.2,257.5  C-466.2,248.3 ,-466.2,183.5  -494.2,183.5 " stroke-width="2" stroke="#345780" stroke-dasharray="" stroke-linecap="" stroke-opacity="1" fill="none" fill-opacity="0" visibility="visible" style="opacity: 1;"/><path d="M-466.2,257.5  C-466.2,243.6 ,-466.2,146.5  -494.2,146.5 " stroke-width="2" stroke="#345780" stroke-dasharray="" stroke-linecap="" stroke-opacity="1" fill="none" fill-opacity="0" visibility="visible" style="opacity: 1;"/><path d="M-224.2,128.0  C-224.2,144.2 ,-224.2,257.5  -252.2,257.5 " stroke-width="2" stroke="#345780" stroke-dasharray="" stroke-linecap="" stroke-opacity="1" fill="none" fill-opacity="0" visibility="visible" style="opacity: 1;"/><path d="M-595.8,35.5  C-595.8,44.8 ,-595.8,109.5  -623.8,109.5 " stroke-width="2" stroke="#345780" stroke-dasharray="" stroke-linecap="" stroke-opacity="1" fill="none" fill-opacity="0" visibility="visible" style="opacity: 1;"/><path d="M-595.8,35.5  C-595.8,40.1 ,-595.8,72.5  -623.8,72.5 " stroke-width="2" stroke="#345780" stroke-dasharray="" stroke-linecap="" stroke-opacity="1" fill="none" fill-opacity="0" visibility="visible" style="opacity: 1;"/><path d="M-595.8,35.5  C-595.8,35.5 ,-595.8,35.5  -623.8,35.5 " stroke-width="2" stroke="#345780" stroke-dasharray="" stroke-linecap="" stroke-opacity="1" fill="none" fill-opacity="0" visibility="visible" style="opacity: 1;"/><path d="M-595.8,35.5  C-595.8,30.9 ,-595.8,-1.5  -623.8,-1.5 " stroke-width="2" stroke="#345780" stroke-dasharray="" stroke-linecap="" stroke-opacity="1" fill="none" fill-opacity="0" visibility="visible" style="opacity: 1;"/><path d="M-595.8,35.5  C-595.8,26.3 ,-595.8,-38.5  -623.8,-38.5 " stroke-width="2" stroke="#345780" stroke-dasharray="" stroke-linecap="" stroke-opacity="1" fill="none" fill-opacity="0" visibility="visible" style="opacity: 1;"/><path d="M-224.2,128.0  C-224.2,116.5 ,-224.2,35.5  -252.2,35.5 " stroke-width="2" stroke="#345780" stroke-dasharray="" stroke-linecap="" stroke-opacity="1" fill="none" fill-opacity="0" visibility="visible" style="opacity: 1;"/><path d="M-224.2,128.0  C-224.2,102.6 ,-224.2,-75.5  -252.2,-75.5 " stroke-width="2" stroke="#345780" stroke-dasharray="" stroke-linecap="" stroke-opacity="1" fill="none" fill-opacity="0" visibility="visible" style="opacity: 1;"/><path d="M-400.5,-112.5  C-400.5,-112.5 ,-400.5,-112.5  -428.5,-112.5 " stroke-width="2" stroke="#345780" stroke-dasharray="" stroke-linecap="" stroke-opacity="1" fill="none" fill-opacity="0" visibility="visible" style="opacity: 1;"/><path d="M-224.2,128.0  C-224.2,98.0 ,-224.2,-112.5  -252.2,-112.5 " stroke-width="2" stroke="#345780" stroke-dasharray="" stroke-linecap="" stroke-opacity="1" fill="none" fill-opacity="0" visibility="visible" style="opacity: 1;"/><path d="M-10.0,0.0  C-10.0,16.0 ,-10.0,128.0  -68.0,128.0 " stroke-width="2" stroke="#6AD6D7" stroke-dasharray="" stroke-linecap="" stroke-opacity="1" fill="none" fill-opacity="0" visibility="visible" style="opacity: 1;"/><path d="M447.4,98.2  C447.4,97.7 ,447.4,93.5  475.4,93.5 " stroke-width="2" stroke="#345780" stroke-dasharray="" stroke-linecap="" stroke-opacity="1" fill="none" fill-opacity="0" visibility="visible" style="opacity: 1;"/><path d="M239.5,56.5  C239.5,61.7 ,239.5,98.2  267.5,98.2 " stroke-width="2" stroke="#345780" stroke-dasharray="" stroke-linecap="" stroke-opacity="1" fill="none" fill-opacity="0" visibility="visible" style="opacity: 1;"/><path d="M239.5,56.5  C239.5,55.9 ,239.5,51.8  267.5,51.8 " stroke-width="2" stroke="#345780" stroke-dasharray="" stroke-linecap="" stroke-opacity="1" fill="none" fill-opacity="0" visibility="visible" style="opacity: 1;"/><path d="M239.5,56.5  C239.5,51.3 ,239.5,14.7  267.5,14.7 " stroke-width="2" stroke="#345780" stroke-dasharray="" stroke-linecap="" stroke-opacity="1" fill="none" fill-opacity="0" visibility="visible" style="opacity: 1;"/><path d="M10.0,0.0  C10.0,7.1 ,10.0,56.5  68.0,56.5 " stroke-width="2" stroke="#F8D651" stroke-dasharray="" stroke-linecap="" stroke-opacity="1" fill="none" fill-opacity="0" visibility="visible" style="opacity: 1;"/><path d="M-781.5,-256.2  C-781.5,-256.3 ,-781.5,-256.7  -809.5,-256.7 " stroke-width="2" stroke="#345780" stroke-dasharray="" stroke-linecap="" stroke-opacity="1" fill="none" fill-opacity="0" visibility="visible" style="opacity: 1;"/><path d="M-550.3,-256.3  C-550.3,-256.3 ,-550.3,-256.2  -578.3,-256.2 " stroke-width="2" stroke="#345780" stroke-dasharray="" stroke-linecap="" stroke-opacity="1" fill="none" fill-opacity="0" visibility="visible" style="opacity: 1;"/><path d="M-677.3,-184.6  C-677.3,-180.1 ,-677.3,-149.1  -705.3,-149.1 " stroke-width="2" stroke="#345780" stroke-dasharray="" stroke-linecap="" stroke-opacity="1" fill="none" fill-opacity="0" visibility="visible" style="opacity: 1;"/><path d="M-677.3,-184.6  C-677.3,-184.6 ,-677.3,-185.0  -705.3,-185.0 " stroke-width="2" stroke="#345780" stroke-dasharray="" stroke-linecap="" stroke-opacity="1" fill="none" fill-opacity="0" visibility="visible" style="opacity: 1;"/><path d="M-677.3,-184.6  C-677.3,-189.1 ,-677.3,-220.5  -705.3,-220.5 " stroke-width="2" stroke="#345780" stroke-dasharray="" stroke-linecap="" stroke-opacity="1" fill="none" fill-opacity="0" visibility="visible" style="opacity: 1;"/><path d="M-283.5,-203.1  C-283.5,-200.8 ,-283.5,-184.6  -311.5,-184.6 " stroke-width="2" stroke="#345780" stroke-dasharray="" stroke-linecap="" stroke-opacity="1" fill="none" fill-opacity="0" visibility="visible" style="opacity: 1;"/><path d="M-283.5,-203.1  C-283.5,-209.7 ,-283.5,-256.3  -311.5,-256.3 " stroke-width="2" stroke="#345780" stroke-dasharray="" stroke-linecap="" stroke-opacity="1" fill="none" fill-opacity="0" visibility="visible" style="opacity: 1;"/><path d="M-10.0,0.0  C-10.0,-25.4 ,-10.0,-203.1  -68.0,-203.1 " stroke-width="2" stroke="#A5D945" stroke-dasharray="" stroke-linecap="" stroke-opacity="1" fill="none" fill-opacity="0" visibility="visible" style="opacity: 1;"/><path d="M-260.9,-350.8  C-260.9,-353.0 ,-260.9,-368.9  -288.9,-368.9 " stroke-width="2" stroke="#345780" stroke-dasharray="" stroke-linecap="" stroke-opacity="1" fill="none" fill-opacity="0" visibility="visible" style="opacity: 1;"/><path d="M-260.9,-350.8  C-260.9,-348.5 ,-260.9,-332.6  -288.9,-332.6 " stroke-width="2" stroke="#345780" stroke-dasharray="" stroke-linecap="" stroke-opacity="1" fill="none" fill-opacity="0" visibility="visible" style="opacity: 1;"/><path d="M-10.0,0.0  C-10.0,-43.8 ,-10.0,-350.8  -68.0,-350.8 " stroke-width="2" stroke="#E5628C" stroke-dasharray="" stroke-linecap="" stroke-opacity="1" fill="none" fill-opacity="0" visibility="visible" style="opacity: 1;"/><path d="M-10.0,0.0  C-10.0,-36.9 ,-10.0,-294.8  -68.0,-294.8 " stroke-width="2" stroke="#F3AE3D" stroke-dasharray="" stroke-linecap="" stroke-opacity="1" fill="none" fill-opacity="0" visibility="visible" style="opacity: 1;"/><path d="M10.0,0.0  C10.0,-3.0 ,10.0,-24.1  68.0,-24.1 " stroke-width="2" stroke="#EB5130" stroke-dasharray="" stroke-linecap="" stroke-opacity="1" fill="none" fill-opacity="0" visibility="visible" style="opacity: 1;"/><path d="M235.6,-80.6  C235.6,-78.4 ,235.6,-62.6  263.6,-62.6 " stroke-width="2" stroke="#345780" stroke-dasharray="" stroke-linecap="" stroke-opacity="1" fill="none" fill-opacity="0" visibility="visible" style="opacity: 1;"/><path d="M235.6,-80.6  C235.6,-82.9 ,235.6,-98.7  263.6,-98.7 " stroke-width="2" stroke="#345780" stroke-dasharray="" stroke-linecap="" stroke-opacity="1" fill="none" fill-opacity="0" visibility="visible" style="opacity: 1;"/><path d="M10.0,0.0  C10.0,-10.1 ,10.0,-80.6  68.0,-80.6 " stroke-width="2" stroke="#9B7BEB" stroke-dasharray="" stroke-linecap="" stroke-opacity="1" fill="none" fill-opacity="0" visibility="visible" style="opacity: 1;"/><g preserveAspectRatio="none" focusable="true" width="100" height="100" transform="translate(-36.01,-15.99) scale(1.00,1.00)" test-id="1" visibility="visible" style="opacity: 1;"><rect width="78" height="38" rx="11" ry="11" x="-3" y="-3" stroke-width="1" stroke="#ffffff" stroke-dasharray="" stroke-linecap="" fill="#ffffff" stroke-opacity="0" fill-opacity="0" style="cursor: default;"/><rect width="72" height="32" rx="10" ry="10" x="0" y="0" stroke-width="2" stroke="#FFFFFF" stroke-dasharray="" stroke-linecap="" fill="#FFFFFF" style="cursor: default; opacity: 1;" visibility="visible"/><text font-family="Verdana" font-size="13.4" font-style="normal" font-weight="bold" fill="#000000" style="cursor: default; opacity: 1;" visibility="visible" y="8.00" x="8.32"><tspan dy="1em" x="8.32">Le Web</tspan></text><g preserveAspectRatio="none" focusable="true" width="0" height="21"/></g><g preserveAspectRatio="none" focusable="true" width="100" height="100" transform="translate(66.01,-95.26) scale(1.00,1.00)" test-id="2" visibility="visible" style="opacity: 1;"><rect width="172" height="35" rx="11" ry="11" x="-3" y="-3" stroke-width="1" stroke="#e1c1ff" stroke-dasharray="" stroke-linecap="" fill="#e1c1ff" stroke-opacity="0" fill-opacity="0" style="cursor: move;"/><rect width="166" height="29" rx="9" ry="9" x="0" y="0" stroke-width="2" stroke="#9B7BEB" stroke-dasharray="" stroke-linecap="" fill="#9B7BEB" style="cursor: move; opacity: 1;" visibility="visible"/><text font-family="Verdana" font-size="12.1" font-style="normal" font-weight="normal" fill="#000000" style="cursor: move; opacity: 1;" visibility="visible" y="7.33" x="7.62"><tspan dy="1em" x="7.62">Le modèle client-serveur</tspan></text><g preserveAspectRatio="none" focusable="true" width="0" height="19"/><ellipse width="6" height="6" rx="3" ry="3" cx="169" cy="15" stroke-width="2" stroke="#9B7BEB" stroke-dasharray="" stroke-linecap="" fill="#ffdfff" style="cursor: default; opacity: 1;" visibility="visible"/></g><g preserveAspectRatio="none" focusable="true" width="100" height="100" transform="translate(261.64,-111.74) scale(1.00,1.00)" test-id="3" visibility="visible" style="opacity: 1;"><rect width="209" height="32" rx="10" ry="10" x="-3" y="-3" stroke-width="1" stroke="#dcffff" stroke-dasharray="" stroke-linecap="" fill="#dcffff" stroke-opacity="0" fill-opacity="0" style="cursor: move;"/><text font-family="Verdana" font-size="10.8" font-style="normal" font-weight="normal" fill="#000000" style="cursor: move; opacity: 1;" visibility="visible" y="6.51" x="6.77"><tspan dy="1em" x="6.77">Un poste client envoie une requête</tspan></text><g preserveAspectRatio="none" focusable="true" width="0" height="17"/><ellipse width="6" height="6" rx="3" ry="3" cx="5" cy="5" stroke-width="2" stroke="#96e3ff" stroke-dasharray="" stroke-linecap="" fill="#faffff" style="cursor: default; opacity: 0;" visibility="hidden"/></g><g preserveAspectRatio="none" focusable="true" width="100" height="100" transform="translate(261.64,-75.72) scale(1.00,1.00)" test-id="4" visibility="visible" style="opacity: 1;"><rect width="329" height="32" rx="10" ry="10" x="-3" y="-3" stroke-width="1" stroke="#dcffff" stroke-dasharray="" stroke-linecap="" fill="#dcffff" stroke-opacity="0" fill-opacity="0" style="cursor: move;"/><text font-family="Verdana" font-size="10.8" font-style="normal" font-weight="normal" fill="#000000" style="cursor: move; opacity: 1;" visibility="visible" y="6.56" x="6.83"><tspan dy="1em" x="6.83">Le serveur retourne les ressources (textes, images, etc.)</tspan></text><g preserveAspectRatio="none" focusable="true" width="0" height="17"/><ellipse width="6" height="6" rx="3" ry="3" cx="5" cy="5" stroke-width="2" stroke="#96e3ff" stroke-dasharray="" stroke-linecap="" fill="#faffff" style="cursor: default; opacity: 0;" visibility="hidden"/></g><g preserveAspectRatio="none" focusable="true" width="100" height="100" transform="translate(66.01,-39.46) scale(1.00,1.00)" test-id="5" visibility="visible" style="opacity: 1;"><rect width="319" height="37" rx="11" ry="11" x="-3" y="-3" stroke-width="1" stroke="#ff9776" stroke-dasharray="" stroke-linecap="" fill="#ff9776" stroke-opacity="0" fill-opacity="0" style="cursor: move;"/><rect width="313" height="31" rx="9" ry="9" x="0" y="0" stroke-width="2" stroke="#EB5130" stroke-dasharray="" stroke-linecap="" fill="#EB5130" style="cursor: move; opacity: 1;" visibility="visible"/><text font-family="Verdana" font-size="12.1" font-style="normal" font-weight="normal" fill="#000000" style="cursor: move; opacity: 1;" visibility="visible" y="7.68" x="7.98"><tspan dy="1em" x="7.98">Protocole HTTP (HyperText Transfer Protocol)</tspan></text><g preserveAspectRatio="none" focusable="true" width="0" height="20"/><ellipse width="6" height="6" rx="3" ry="3" cx="5" cy="5" stroke-width="2" stroke="#EB5130" stroke-dasharray="" stroke-linecap="" fill="#ffb594" style="cursor: default; opacity: 0;" visibility="hidden"/></g><g preserveAspectRatio="none" focusable="true" width="100" height="100" transform="translate(-487.33,-309.51) scale(1.00,1.00)" test-id="6" visibility="visible" style="opacity: 1;"><rect width="427" height="35" rx="11" ry="11" x="-3" y="-3" stroke-width="1" stroke="#fff483" stroke-dasharray="" stroke-linecap="" fill="#fff483" stroke-opacity="0" fill-opacity="0" style="cursor: move;"/><rect width="421" height="29" rx="9" ry="9" x="0" y="0" stroke-width="2" stroke="#F3AE3D" stroke-dasharray="" stroke-linecap="" fill="#F3AE3D" style="cursor: move; opacity: 1;" visibility="visible"/><text font-family="Verdana" font-size="12.1" font-style="normal" font-weight="normal" fill="#000000" style="cursor: move; opacity: 1;" visibility="visible" y="7.33" x="7.62"><tspan dy="1em" x="7.62">Une URL (Uniform Resource Locator) est l’adresse d’une page Web</tspan></text><g preserveAspectRatio="none" focusable="true" width="0" height="19"/><ellipse width="6" height="6" rx="3" ry="3" cx="5" cy="5" stroke-width="2" stroke="#F3AE3D" stroke-dasharray="" stroke-linecap="" fill="#ffffa1" style="cursor: default; opacity: 0;" visibility="hidden"/></g><g preserveAspectRatio="none" focusable="true" width="100" height="100" transform="translate(-256.93,-365.42) scale(1.00,1.00)" test-id="7" visibility="visible" style="opacity: 1;"><rect width="197" height="35" rx="11" ry="11" x="-3" y="-3" stroke-width="1" stroke="#ffa8d2" stroke-dasharray="" stroke-linecap="" fill="#ffa8d2" stroke-opacity="0" fill-opacity="0" style="cursor: move;"/><rect width="191" height="29" rx="9" ry="9" x="0" y="0" stroke-width="2" stroke="#E5628C" stroke-dasharray="" stroke-linecap="" fill="#E5628C" style="cursor: move; opacity: 1;" visibility="visible"/><text font-family="Verdana" font-size="12.1" font-style="normal" font-weight="normal" fill="#000000" style="cursor: move; opacity: 1;" visibility="visible" y="7.33" x="7.62"><tspan dy="1em" x="7.62">Constituée de deux langages</tspan></text><g preserveAspectRatio="none" focusable="true" width="0" height="19"/><ellipse width="6" height="6" rx="3" ry="3" cx="-3" cy="15" stroke-width="2" stroke="#E5628C" stroke-dasharray="" stroke-linecap="" fill="#ffc6f0" style="cursor: default; opacity: 1;" visibility="visible"/></g><g preserveAspectRatio="none" focusable="true" width="100" height="100" transform="translate(-499.13,-345.76) scale(1.00,1.00)" test-id="8" visibility="visible" style="opacity: 1;"><rect width="218" height="32" rx="10" ry="10" x="-3" y="-3" stroke-width="1" stroke="#dcffff" stroke-dasharray="" stroke-linecap="" fill="#dcffff" stroke-opacity="0" fill-opacity="0" style="cursor: move;"/><text font-family="Verdana" font-size="10.8" font-style="normal" font-weight="normal" fill="#000000" style="cursor: move; opacity: 1;" visibility="visible" y="6.56" x="6.83"><tspan dy="1em" x="6.83">HTML (HyperText Markup Language)</tspan></text><g preserveAspectRatio="none" focusable="true" width="0" height="17"/><ellipse width="6" height="6" rx="3" ry="3" cx="5" cy="5" stroke-width="2" stroke="#96e3ff" stroke-dasharray="" stroke-linecap="" fill="#faffff" style="cursor: default; opacity: 0;" visibility="hidden"/></g><g preserveAspectRatio="none" focusable="true" width="100" height="100" transform="translate(-463.27,-382.02) scale(1.00,1.00)" test-id="9" visibility="visible" style="opacity: 1;"><rect width="182" height="32" rx="10" ry="10" x="-3" y="-3" stroke-width="1" stroke="#dcffff" stroke-dasharray="" stroke-linecap="" fill="#dcffff" stroke-opacity="0" fill-opacity="0" style="cursor: move;"/><text font-family="Verdana" font-size="10.8" font-style="normal" font-weight="normal" fill="#000000" style="cursor: move; opacity: 1;" visibility="visible" y="6.56" x="6.83"><tspan dy="1em" x="6.83">CSS (Cascading Style Sheets)</tspan></text><g preserveAspectRatio="none" focusable="true" width="0" height="17"/><ellipse width="6" height="6" rx="3" ry="3" cx="5" cy="5" stroke-width="2" stroke="#96e3ff" stroke-dasharray="" stroke-linecap="" fill="#faffff" style="cursor: default; opacity: 0;" visibility="hidden"/></g><g preserveAspectRatio="none" focusable="true" width="100" height="100" transform="translate(-279.51,-217.74) scale(1.00,1.00)" test-id="10" visibility="visible" style="opacity: 1;"><rect width="220" height="35" rx="11" ry="11" x="-3" y="-3" stroke-width="1" stroke="#ebff8b" stroke-dasharray="" stroke-linecap="" fill="#ebff8b" stroke-opacity="0" fill-opacity="0" style="cursor: move;"/><rect width="214" height="29" rx="9" ry="9" x="0" y="0" stroke-width="2" stroke="#A5D945" stroke-dasharray="" stroke-linecap="" fill="#A5D945" style="cursor: move; opacity: 1;" visibility="visible"/><text font-family="Verdana" font-size="12.1" font-style="normal" font-weight="normal" fill="#000000" style="cursor: move; opacity: 1;" visibility="visible" y="7.33" x="7.62"><tspan dy="1em" x="7.62">Sécurité et vie privée sur le Web</tspan></text><g preserveAspectRatio="none" focusable="true" width="0" height="19"/><ellipse width="6" height="6" rx="3" ry="3" cx="-3" cy="15" stroke-width="2" stroke="#A5D945" stroke-dasharray="" stroke-linecap="" fill="#ffffa9" style="cursor: default; opacity: 1;" visibility="visible"/></g><g preserveAspectRatio="none" focusable="true" width="100" height="100" transform="translate(-546.35,-269.44) scale(1.00,1.00)" test-id="11" visibility="visible" style="opacity: 1;"><rect width="243" height="32" rx="10" ry="10" x="-3" y="-3" stroke-width="1" stroke="#dcffff" stroke-dasharray="" stroke-linecap="" fill="#dcffff" stroke-opacity="0" fill-opacity="0" style="cursor: move;"/><text font-family="Verdana" font-size="10.8" font-style="normal" font-weight="normal" fill="#000000" style="cursor: move; opacity: 1;" visibility="visible" y="6.56" x="6.83"><tspan dy="1em" x="6.83">La gestion des paramètres du navigateur</tspan></text><g preserveAspectRatio="none" focusable="true" width="0" height="17"/><ellipse width="6" height="6" rx="3" ry="3" cx="-3" cy="13" stroke-width="2" stroke="#96e3ff" stroke-dasharray="" stroke-linecap="" fill="#faffff" style="cursor: default; opacity: 1;" visibility="visible"/></g><g preserveAspectRatio="none" focusable="true" width="100" height="100" transform="translate(-673.26,-197.71) scale(1.00,1.00)" test-id="12" visibility="visible" style="opacity: 1;"><rect width="370" height="32" rx="10" ry="10" x="-3" y="-3" stroke-width="1" stroke="#dcffff" stroke-dasharray="" stroke-linecap="" fill="#dcffff" stroke-opacity="0" fill-opacity="0" style="cursor: move;"/><text font-family="Verdana" font-size="10.8" font-style="normal" font-weight="normal" fill="#000000" style="cursor: move; opacity: 1;" visibility="visible" y="6.56" x="6.83"><tspan dy="1em" x="6.83">Moteurs de recherche ne conserve pas l'historique de navigation</tspan></text><g preserveAspectRatio="none" focusable="true" width="0" height="17"/><ellipse width="6" height="6" rx="3" ry="3" cx="-3" cy="13" stroke-width="2" stroke="#96e3ff" stroke-dasharray="" stroke-linecap="" fill="#faffff" style="cursor: default; opacity: 1;" visibility="visible"/></g><g preserveAspectRatio="none" focusable="true" width="100" height="100" transform="translate(-785.65,-233.18) scale(1.00,1.00)" test-id="13" visibility="visible" style="opacity: 1;"><rect width="88" height="31" rx="9" ry="9" x="-3" y="-3" stroke-width="1" stroke="#dcffff" stroke-dasharray="" stroke-linecap="" fill="#dcffff" stroke-opacity="0" fill-opacity="0" style="cursor: move;"/><text font-family="Verdana" font-size="10.8" font-style="normal" font-weight="normal" fill="#000000" style="cursor: move; opacity: 1;" visibility="visible" y="6.33" x="6.58"><tspan dy="1em" x="6.58">DuckDuckGo</tspan></text><g preserveAspectRatio="none" focusable="true" width="0" height="16"/><ellipse width="6" height="6" rx="3" ry="3" cx="5" cy="5" stroke-width="2" stroke="#96e3ff" stroke-dasharray="" stroke-linecap="" fill="#faffff" style="cursor: default; opacity: 0;" visibility="hidden"/></g><g preserveAspectRatio="none" focusable="true" width="100" height="100" transform="translate(-751.37,-197.86) scale(1.00,1.00)" test-id="14" visibility="visible" style="opacity: 1;"><rect width="54" height="32" rx="9" ry="9" x="-3" y="-3" stroke-width="1" stroke="#dcffff" stroke-dasharray="" stroke-linecap="" fill="#dcffff" stroke-opacity="0" fill-opacity="0" style="cursor: move;"/><text font-family="Verdana" font-size="10.8" font-style="normal" font-weight="normal" fill="#000000" style="cursor: move; opacity: 1;" visibility="visible" y="6.41" x="6.66"><tspan dy="1em" x="6.66">Qwant</tspan></text><g preserveAspectRatio="none" focusable="true" width="0" height="17"/><ellipse width="6" height="6" rx="3" ry="3" cx="5" cy="5" stroke-width="2" stroke="#96e3ff" stroke-dasharray="" stroke-linecap="" fill="#faffff" style="cursor: default; opacity: 0;" visibility="hidden"/></g><g preserveAspectRatio="none" focusable="true" width="100" height="100" transform="translate(-770.26,-162.24) scale(1.00,1.00)" test-id="15" visibility="visible" style="opacity: 1;"><rect width="73" height="32" rx="10" ry="10" x="-3" y="-3" stroke-width="1" stroke="#dcffff" stroke-dasharray="" stroke-linecap="" fill="#dcffff" stroke-opacity="0" fill-opacity="0" style="cursor: move;"/><text font-family="Verdana" font-size="10.8" font-style="normal" font-weight="normal" fill="#000000" style="cursor: move; opacity: 1;" visibility="visible" y="6.56" x="6.83"><tspan dy="1em" x="6.83">Startpage</tspan></text><g preserveAspectRatio="none" focusable="true" width="0" height="17"/><ellipse width="6" height="6" rx="3" ry="3" cx="5" cy="5" stroke-width="2" stroke="#96e3ff" stroke-dasharray="" stroke-linecap="" fill="#faffff" style="cursor: default; opacity: 0;" visibility="hidden"/></g><g preserveAspectRatio="none" focusable="true" width="100" height="100" transform="translate(-777.47,-269.21) scale(1.00,1.00)" test-id="16" visibility="visible" style="opacity: 1;"><rect width="207" height="32" rx="10" ry="10" x="-3" y="-3" stroke-width="1" stroke="#dcffff" stroke-dasharray="" stroke-linecap="" fill="#dcffff" stroke-opacity="0" fill-opacity="0" style="cursor: move;"/><text font-family="Verdana" font-size="10.8" font-style="normal" font-weight="normal" fill="#000000" style="cursor: move; opacity: 1;" visibility="visible" y="6.51" x="6.77"><tspan dy="1em" x="6.77">Un cookie est un petit fichier texte</tspan></text><g preserveAspectRatio="none" focusable="true" width="0" height="17"/><ellipse width="6" height="6" rx="3" ry="3" cx="-3" cy="13" stroke-width="2" stroke="#96e3ff" stroke-dasharray="" stroke-linecap="" fill="#faffff" style="cursor: default; opacity: 1;" visibility="visible"/></g><g preserveAspectRatio="none" focusable="true" width="100" height="100" transform="translate(-1056.41,-270.18) scale(1.00,1.00)" test-id="17" visibility="visible" style="opacity: 1;"><rect width="255" height="33" rx="10" ry="10" x="-3" y="-3" stroke-width="1" stroke="#dcffff" stroke-dasharray="" stroke-linecap="" fill="#dcffff" stroke-opacity="0" fill-opacity="0" style="cursor: move;"/><text font-family="Verdana" font-size="10.8" font-style="normal" font-weight="normal" fill="#000000" style="cursor: move; opacity: 1;" visibility="visible" y="6.75" x="7.02"><tspan dy="1em" x="7.02">Mémoriser des infos sur vos préférences</tspan></text><g preserveAspectRatio="none" focusable="true" width="0" height="18"/><ellipse width="6" height="6" rx="3" ry="3" cx="-3" cy="14" stroke-width="2" stroke="#96e3ff" stroke-dasharray="" stroke-linecap="" fill="#faffff" style="cursor: default; opacity: 0;" visibility="hidden"/></g><g preserveAspectRatio="none" focusable="true" width="100" height="100" transform="translate(66.01,41.14) scale(1.00,1.00)" test-id="20" visibility="visible" style="opacity: 1;"><rect width="176" height="37" rx="11" ry="11" x="-3" y="-3" stroke-width="1" stroke="#ffff97" stroke-dasharray="" stroke-linecap="" fill="#ffff97" stroke-opacity="0" fill-opacity="0" style="cursor: move;"/><rect width="170" height="31" rx="9" ry="9" x="0" y="0" stroke-width="2" stroke="#F8D651" stroke-dasharray="" stroke-linecap="" fill="#F8D651" style="cursor: move; opacity: 1;" visibility="visible"/><text font-family="Verdana" font-size="12.1" font-style="normal" font-weight="normal" fill="#000000" style="cursor: move; opacity: 1;" visibility="visible" y="7.68" x="7.98"><tspan dy="1em" x="7.98">Les droits sur l’Internet</tspan></text><g preserveAspectRatio="none" focusable="true" width="0" height="20"/><ellipse width="6" height="6" rx="3" ry="3" cx="173" cy="15" stroke-width="2" stroke="#F8D651" stroke-dasharray="" stroke-linecap="" fill="#ffffb5" style="cursor: default; opacity: 1;" visibility="visible"/></g><g preserveAspectRatio="none" focusable="true" width="100" height="100" transform="translate(265.53,1.25) scale(1.00,1.00)" test-id="21" visibility="visible" style="opacity: 1;"><rect width="179" height="33" rx="10" ry="10" x="-3" y="-3" stroke-width="1" stroke="#dcffff" stroke-dasharray="" stroke-linecap="" fill="#dcffff" stroke-opacity="0" fill-opacity="0" style="cursor: move;"/><text font-family="Verdana" font-size="10.8" font-style="normal" font-weight="normal" fill="#000000" style="cursor: move; opacity: 1;" visibility="visible" y="6.75" x="7.02"><tspan dy="1em" x="7.02">Le droit d'auteur en France</tspan></text><g preserveAspectRatio="none" focusable="true" width="0" height="18"/><ellipse width="6" height="6" rx="3" ry="3" cx="5" cy="5" stroke-width="2" stroke="#96e3ff" stroke-dasharray="" stroke-linecap="" fill="#faffff" style="cursor: default; opacity: 0;" visibility="hidden"/></g><g preserveAspectRatio="none" focusable="true" width="100" height="100" transform="translate(265.53,38.25) scale(1.00,1.00)" test-id="22" visibility="visible" style="opacity: 1;"><rect width="184" height="33" rx="10" ry="10" x="-3" y="-3" stroke-width="1" stroke="#dcffff" stroke-dasharray="" stroke-linecap="" fill="#dcffff" stroke-opacity="0" fill-opacity="0" style="cursor: move;"/><text font-family="Verdana" font-size="10.8" font-style="normal" font-weight="normal" fill="#000000" style="cursor: move; opacity: 1;" visibility="visible" y="6.76" x="7.03"><tspan dy="1em" x="7.03">Le Copyright aux États-Unis</tspan></text><g preserveAspectRatio="none" focusable="true" width="0" height="18"/><ellipse width="6" height="6" rx="3" ry="3" cx="5" cy="5" stroke-width="2" stroke="#96e3ff" stroke-dasharray="" stroke-linecap="" fill="#faffff" style="cursor: default; opacity: 0;" visibility="hidden"/></g><g preserveAspectRatio="none" focusable="true" width="100" height="100" transform="translate(265.53,84.74) scale(1.00,1.00)" test-id="23" visibility="visible" style="opacity: 1;"><rect width="184" height="33" rx="10" ry="10" x="-3" y="-3" stroke-width="1" stroke="#dcffff" stroke-dasharray="" stroke-linecap="" fill="#dcffff" stroke-opacity="0" fill-opacity="0" style="cursor: move;"/><text font-family="Verdana" font-size="10.8" font-style="normal" font-weight="normal" fill="#000000" style="cursor: move; opacity: 1;" visibility="visible" y="6.75" x="7.02"><tspan dy="1em" x="7.02">Licences Creative Commons</tspan></text><g preserveAspectRatio="none" focusable="true" width="0" height="18"/><ellipse width="6" height="6" rx="3" ry="3" cx="181" cy="14" stroke-width="2" stroke="#96e3ff" stroke-dasharray="" stroke-linecap="" fill="#faffff" style="cursor: default; opacity: 1;" visibility="visible"/></g><g preserveAspectRatio="none" focusable="true" width="100" height="100" transform="translate(473.37,75.29) scale(1.00,1.00)" test-id="24" visibility="visible" style="opacity: 1;"><rect width="187" height="42" rx="13" ry="13" x="-3" y="-3" stroke-width="1" stroke="#dcffff" stroke-dasharray="" stroke-linecap="" fill="#dcffff" stroke-opacity="0" fill-opacity="0" style="cursor: move;"/><text font-family="Verdana" font-size="10.8" font-style="normal" font-weight="normal" fill="#000000" style="cursor: move; opacity: 1;" visibility="visible" y="6.07" x="6.32"><tspan dy="1em" x="6.32">Encourager la circulation des</tspan><tspan dy="1em" x="6.32">œuvres</tspan></text><g preserveAspectRatio="none" focusable="true" width="0" height="16"/><ellipse width="6" height="6" rx="3" ry="3" cx="5" cy="5" stroke-width="2" stroke="#96e3ff" stroke-dasharray="" stroke-linecap="" fill="#faffff" style="cursor: default; opacity: 0;" visibility="hidden"/></g><g preserveAspectRatio="none" focusable="true" width="100" height="100" transform="translate(-220.17,112.66) scale(1.00,1.00)" test-id="25" visibility="visible" style="opacity: 1;"><rect width="160" height="37" rx="11" ry="11" x="-3" y="-3" stroke-width="1" stroke="#b0ffff" stroke-dasharray="" stroke-linecap="" fill="#b0ffff" stroke-opacity="0" fill-opacity="0" style="cursor: move;"/><rect width="154" height="31" rx="9" ry="9" x="0" y="0" stroke-width="2" stroke="#6AD6D7" stroke-dasharray="" stroke-linecap="" fill="#6AD6D7" style="cursor: move; opacity: 1;" visibility="visible"/><text font-family="Verdana" font-size="12.1" font-style="normal" font-weight="normal" fill="#000000" style="cursor: move; opacity: 1;" visibility="visible" y="7.68" x="7.98"><tspan dy="1em" x="7.98">Moteur de recherche</tspan></text><g preserveAspectRatio="none" focusable="true" width="0" height="20"/><ellipse width="6" height="6" rx="3" ry="3" cx="-3" cy="15" stroke-width="2" stroke="#6AD6D7" stroke-dasharray="" stroke-linecap="" fill="#ceffff" style="cursor: default; opacity: 1;" visibility="visible"/></g><g preserveAspectRatio="none" focusable="true" width="100" height="100" transform="translate(-396.51,-125.98) scale(1.00,1.00)" test-id="26" visibility="visible" style="opacity: 1;"><rect width="152" height="33" rx="10" ry="10" x="-3" y="-3" stroke-width="1" stroke="#dcffff" stroke-dasharray="" stroke-linecap="" fill="#dcffff" stroke-opacity="0" fill-opacity="0" style="cursor: move;"/><text font-family="Verdana" font-size="10.8" font-style="normal" font-weight="normal" fill="#000000" style="cursor: move; opacity: 1;" visibility="visible" y="6.75" x="7.02"><tspan dy="1em" x="7.02">référencement naturel</tspan></text><g preserveAspectRatio="none" focusable="true" width="0" height="18"/><ellipse width="6" height="6" rx="3" ry="3" cx="-3" cy="14" stroke-width="2" stroke="#96e3ff" stroke-dasharray="" stroke-linecap="" fill="#faffff" style="cursor: default; opacity: 1;" visibility="visible"/></g><g preserveAspectRatio="none" focusable="true" width="100" height="100" transform="translate(-639.45,-125.98) scale(1.00,1.00)" test-id="27" visibility="visible" style="opacity: 1;"><rect width="219" height="33" rx="10" ry="10" x="-3" y="-3" stroke-width="1" stroke="#dcffff" stroke-dasharray="" stroke-linecap="" fill="#dcffff" stroke-opacity="0" fill-opacity="0" style="cursor: move;"/><text font-family="Verdana" font-size="10.8" font-style="normal" font-weight="normal" fill="#000000" style="cursor: move; opacity: 1;" visibility="visible" y="6.75" x="7.02"><tspan dy="1em" x="7.02">SEO (Search Engine optimization) </tspan></text><g preserveAspectRatio="none" focusable="true" width="0" height="18"/><ellipse width="6" height="6" rx="3" ry="3" cx="5" cy="5" stroke-width="2" stroke="#96e3ff" stroke-dasharray="" stroke-linecap="" fill="#faffff" style="cursor: default; opacity: 0;" visibility="hidden"/></g><g preserveAspectRatio="none" focusable="true" width="100" height="100" transform="translate(-395.61,-88.98) scale(1.00,1.00)" test-id="28" visibility="visible" style="opacity: 1;"><rect width="151" height="33" rx="10" ry="10" x="-3" y="-3" stroke-width="1" stroke="#dcffff" stroke-dasharray="" stroke-linecap="" fill="#dcffff" stroke-opacity="0" fill-opacity="0" style="cursor: move;"/><text font-family="Verdana" font-size="10.8" font-style="normal" font-weight="normal" fill="#000000" style="cursor: move; opacity: 1;" visibility="visible" y="6.75" x="7.02"><tspan dy="1em" x="7.02">référencement payant</tspan></text><g preserveAspectRatio="none" focusable="true" width="0" height="18"/><ellipse width="6" height="6" rx="3" ry="3" cx="5" cy="5" stroke-width="2" stroke="#96e3ff" stroke-dasharray="" stroke-linecap="" fill="#faffff" style="cursor: default; opacity: 0;" visibility="hidden"/></g><g preserveAspectRatio="none" focusable="true" width="100" height="100" transform="translate(-591.81,22.02) scale(1.00,1.00)" test-id="29" visibility="visible" style="opacity: 1;"><rect width="348" height="33" rx="10" ry="10" x="-3" y="-3" stroke-width="1" stroke="#dcffff" stroke-dasharray="" stroke-linecap="" fill="#dcffff" stroke-opacity="0" fill-opacity="0" style="cursor: move;"/><text font-family="Verdana" font-size="10.8" font-style="normal" font-weight="normal" fill="#000000" style="cursor: move; opacity: 1;" visibility="visible" y="6.75" x="7.02"><tspan dy="1em" x="7.02">Les étapes du fonctionnement d’un moteur de recherche</tspan></text><g preserveAspectRatio="none" focusable="true" width="0" height="18"/><ellipse width="6" height="6" rx="3" ry="3" cx="-3" cy="14" stroke-width="2" stroke="#96e3ff" stroke-dasharray="" stroke-linecap="" fill="#faffff" style="cursor: default; opacity: 1;" visibility="visible"/></g><g preserveAspectRatio="none" focusable="true" width="100" height="100" transform="translate(-828.45,-51.98) scale(1.00,1.00)" test-id="30" visibility="visible" style="opacity: 1;"><rect width="213" height="33" rx="10" ry="10" x="-3" y="-3" stroke-width="1" stroke="#dcffff" stroke-dasharray="" stroke-linecap="" fill="#dcffff" stroke-opacity="0" fill-opacity="0" style="cursor: move;"/><text font-family="Verdana" font-size="10.8" font-style="normal" font-weight="normal" fill="#000000" style="cursor: move; opacity: 1;" visibility="visible" y="6.75" x="7.02"><tspan dy="1em" x="7.02">1. Exploration du Web (Crawling)</tspan></text><g preserveAspectRatio="none" focusable="true" width="0" height="18"/><ellipse width="6" height="6" rx="3" ry="3" cx="5" cy="5" stroke-width="2" stroke="#96e3ff" stroke-dasharray="" stroke-linecap="" fill="#faffff" style="cursor: default; opacity: 0;" visibility="hidden"/></g><g preserveAspectRatio="none" focusable="true" width="100" height="100" transform="translate(-716.85,-14.98) scale(1.00,1.00)" test-id="31" visibility="visible" style="opacity: 1;"><rect width="101" height="33" rx="10" ry="10" x="-3" y="-3" stroke-width="1" stroke="#dcffff" stroke-dasharray="" stroke-linecap="" fill="#dcffff" stroke-opacity="0" fill-opacity="0" style="cursor: move;"/><text font-family="Verdana" font-size="10.8" font-style="normal" font-weight="normal" fill="#000000" style="cursor: move; opacity: 1;" visibility="visible" y="6.75" x="7.02"><tspan dy="1em" x="7.02">2. Indexation</tspan></text><g preserveAspectRatio="none" focusable="true" width="0" height="18"/><ellipse width="6" height="6" rx="3" ry="3" cx="5" cy="5" stroke-width="2" stroke="#96e3ff" stroke-dasharray="" stroke-linecap="" fill="#faffff" style="cursor: default; opacity: 0;" visibility="hidden"/></g><g preserveAspectRatio="none" focusable="true" width="100" height="100" transform="translate(-795.15,22.02) scale(1.00,1.00)" test-id="32" visibility="visible" style="opacity: 1;"><rect width="179" height="33" rx="10" ry="10" x="-3" y="-3" stroke-width="1" stroke="#dcffff" stroke-dasharray="" stroke-linecap="" fill="#dcffff" stroke-opacity="0" fill-opacity="0" style="cursor: move;"/><text font-family="Verdana" font-size="10.8" font-style="normal" font-weight="normal" fill="#000000" style="cursor: move; opacity: 1;" visibility="visible" y="6.75" x="7.02"><tspan dy="1em" x="7.02">3. Traitement des requêtes</tspan></text><g preserveAspectRatio="none" focusable="true" width="0" height="18"/><ellipse width="6" height="6" rx="3" ry="3" cx="5" cy="5" stroke-width="2" stroke="#96e3ff" stroke-dasharray="" stroke-linecap="" fill="#faffff" style="cursor: default; opacity: 0;" visibility="hidden"/></g><g preserveAspectRatio="none" focusable="true" width="100" height="100" transform="translate(-858.16,59.02) scale(1.00,1.00)" test-id="33" visibility="visible" style="opacity: 1;"><rect width="242" height="33" rx="10" ry="10" x="-3" y="-3" stroke-width="1" stroke="#dcffff" stroke-dasharray="" stroke-linecap="" fill="#dcffff" stroke-opacity="0" fill-opacity="0" style="cursor: move;"/><text font-family="Verdana" font-size="10.8" font-style="normal" font-weight="normal" fill="#000000" style="cursor: move; opacity: 1;" visibility="visible" y="6.75" x="7.02"><tspan dy="1em" x="7.02">4. Classement des résultats (Ranking)</tspan></text><g preserveAspectRatio="none" focusable="true" width="0" height="18"/><ellipse width="6" height="6" rx="3" ry="3" cx="5" cy="5" stroke-width="2" stroke="#96e3ff" stroke-dasharray="" stroke-linecap="" fill="#faffff" style="cursor: default; opacity: 0;" visibility="hidden"/></g><g preserveAspectRatio="none" focusable="true" width="100" height="100" transform="translate(-785.25,96.02) scale(1.00,1.00)" test-id="34" visibility="visible" style="opacity: 1;"><rect width="169" height="33" rx="10" ry="10" x="-3" y="-3" stroke-width="1" stroke="#dcffff" stroke-dasharray="" stroke-linecap="" fill="#dcffff" stroke-opacity="0" fill-opacity="0" style="cursor: move;"/><text font-family="Verdana" font-size="10.8" font-style="normal" font-weight="normal" fill="#000000" style="cursor: move; opacity: 1;" visibility="visible" y="6.75" x="7.02"><tspan dy="1em" x="7.02">5. Affichage des résultats</tspan></text><g preserveAspectRatio="none" focusable="true" width="0" height="18"/><ellipse width="6" height="6" rx="3" ry="3" cx="5" cy="5" stroke-width="2" stroke="#96e3ff" stroke-dasharray="" stroke-linecap="" fill="#faffff" style="cursor: default; opacity: 0;" visibility="hidden"/></g><g preserveAspectRatio="none" focusable="true" width="100" height="100" transform="translate(-462.21,244.02) scale(1.00,1.00)" test-id="35" visibility="visible" style="opacity: 1;"><rect width="218" height="33" rx="10" ry="10" x="-3" y="-3" stroke-width="1" stroke="#dcffff" stroke-dasharray="" stroke-linecap="" fill="#dcffff" stroke-opacity="0" fill-opacity="0" style="cursor: move;"/><text font-family="Verdana" font-size="10.8" font-style="normal" font-weight="normal" fill="#000000" style="cursor: move; opacity: 1;" visibility="visible" y="6.75" x="7.02"><tspan dy="1em" x="7.02">Les résultats ne sont pas neutres</tspan></text><g preserveAspectRatio="none" focusable="true" width="0" height="18"/><ellipse width="6" height="6" rx="3" ry="3" cx="-3" cy="14" stroke-width="2" stroke="#96e3ff" stroke-dasharray="" stroke-linecap="" fill="#faffff" style="cursor: default; opacity: 1;" visibility="visible"/></g><g preserveAspectRatio="none" focusable="true" width="100" height="100" transform="translate(-596.25,133.02) scale(1.00,1.00)" test-id="36" visibility="visible" style="opacity: 1;"><rect width="110" height="33" rx="10" ry="10" x="-3" y="-3" stroke-width="1" stroke="#dcffff" stroke-dasharray="" stroke-linecap="" fill="#dcffff" stroke-opacity="0" fill-opacity="0" style="cursor: move;"/><text font-family="Verdana" font-size="10.8" font-style="normal" font-weight="normal" fill="#000000" style="cursor: move; opacity: 1;" visibility="visible" y="6.75" x="7.02"><tspan dy="1em" x="7.02">1. Algorithmes </tspan></text><g preserveAspectRatio="none" focusable="true" width="0" height="18"/><ellipse width="6" height="6" rx="3" ry="3" cx="5" cy="5" stroke-width="2" stroke="#96e3ff" stroke-dasharray="" stroke-linecap="" fill="#faffff" style="cursor: default; opacity: 0;" visibility="hidden"/></g><g preserveAspectRatio="none" focusable="true" width="100" height="100" transform="translate(-628.65,170.02) scale(1.00,1.00)" test-id="37" visibility="visible" style="opacity: 1;"><rect width="142" height="33" rx="10" ry="10" x="-3" y="-3" stroke-width="1" stroke="#dcffff" stroke-dasharray="" stroke-linecap="" fill="#dcffff" stroke-opacity="0" fill-opacity="0" style="cursor: move;"/><text font-family="Verdana" font-size="10.8" font-style="normal" font-weight="normal" fill="#000000" style="cursor: move; opacity: 1;" visibility="visible" y="6.75" x="7.02"><tspan dy="1em" x="7.02">2. Biais commerciaux</tspan></text><g preserveAspectRatio="none" focusable="true" width="0" height="18"/><ellipse width="6" height="6" rx="3" ry="3" cx="5" cy="5" stroke-width="2" stroke="#96e3ff" stroke-dasharray="" stroke-linecap="" fill="#faffff" style="cursor: default; opacity: 0;" visibility="hidden"/></g><g preserveAspectRatio="none" focusable="true" width="100" height="100" transform="translate(-698.85,207.02) scale(1.00,1.00)" test-id="38" visibility="visible" style="opacity: 1;"><rect width="213" height="33" rx="10" ry="10" x="-3" y="-3" stroke-width="1" stroke="#dcffff" stroke-dasharray="" stroke-linecap="" fill="#dcffff" stroke-opacity="0" fill-opacity="0" style="cursor: move;"/><text font-family="Verdana" font-size="10.8" font-style="normal" font-weight="normal" fill="#000000" style="cursor: move; opacity: 1;" visibility="visible" y="6.75" x="7.02"><tspan dy="1em" x="7.02">3. Personnalisation des résultats</tspan></text><g preserveAspectRatio="none" focusable="true" width="0" height="18"/><ellipse width="6" height="6" rx="3" ry="3" cx="5" cy="5" stroke-width="2" stroke="#96e3ff" stroke-dasharray="" stroke-linecap="" fill="#faffff" style="cursor: default; opacity: 0;" visibility="hidden"/></g><g preserveAspectRatio="none" focusable="true" width="100" height="100" transform="translate(-629.56,244.02) scale(1.00,1.00)" test-id="39" visibility="visible" style="opacity: 1;"><rect width="143" height="33" rx="10" ry="10" x="-3" y="-3" stroke-width="1" stroke="#dcffff" stroke-dasharray="" stroke-linecap="" fill="#dcffff" stroke-opacity="0" fill-opacity="0" style="cursor: move;"/><text font-family="Verdana" font-size="10.8" font-style="normal" font-weight="normal" fill="#000000" style="cursor: move; opacity: 1;" visibility="visible" y="6.75" x="7.02"><tspan dy="1em" x="7.02">4. Influence des SEO</tspan></text><g preserveAspectRatio="none" focusable="true" width="0" height="18"/><ellipse width="6" height="6" rx="3" ry="3" cx="5" cy="5" stroke-width="2" stroke="#96e3ff" stroke-dasharray="" stroke-linecap="" fill="#faffff" style="cursor: default; opacity: 0;" visibility="hidden"/></g><g preserveAspectRatio="none" focusable="true" width="100" height="100" transform="translate(-751.96,281.02) scale(1.00,1.00)" test-id="40" visibility="visible" style="opacity: 1;"><rect width="266" height="33" rx="10" ry="10" x="-3" y="-3" stroke-width="1" stroke="#dcffff" stroke-dasharray="" stroke-linecap="" fill="#dcffff" stroke-opacity="0" fill-opacity="0" style="cursor: move;"/><text font-family="Verdana" font-size="10.8" font-style="normal" font-weight="normal" fill="#000000" style="cursor: move; opacity: 1;" visibility="visible" y="6.75" x="7.02"><tspan dy="1em" x="7.02">5. Modération et suppression de contenus</tspan></text><g preserveAspectRatio="none" focusable="true" width="0" height="18"/><ellipse width="6" height="6" rx="3" ry="3" cx="5" cy="5" stroke-width="2" stroke="#96e3ff" stroke-dasharray="" stroke-linecap="" fill="#faffff" style="cursor: default; opacity: 0;" visibility="hidden"/></g><g preserveAspectRatio="none" focusable="true" width="100" height="100" transform="translate(-693.46,318.02) scale(1.00,1.00)" test-id="41" visibility="visible" style="opacity: 1;"><rect width="207" height="33" rx="10" ry="10" x="-3" y="-3" stroke-width="1" stroke="#dcffff" stroke-dasharray="" stroke-linecap="" fill="#dcffff" stroke-opacity="0" fill-opacity="0" style="cursor: move;"/><text font-family="Verdana" font-size="10.8" font-style="normal" font-weight="normal" fill="#000000" style="cursor: move; opacity: 1;" visibility="visible" y="6.75" x="7.02"><tspan dy="1em" x="7.02">6. Biais culturels et linguistiques</tspan></text><g preserveAspectRatio="none" focusable="true" width="0" height="18"/><ellipse width="6" height="6" rx="3" ry="3" cx="5" cy="5" stroke-width="2" stroke="#96e3ff" stroke-dasharray="" stroke-linecap="" fill="#faffff" style="cursor: default; opacity: 0;" visibility="hidden"/></g><g preserveAspectRatio="none" focusable="true" width="100" height="100" transform="translate(-719.55,355.02) scale(1.00,1.00)" test-id="42" visibility="visible" style="opacity: 1;"><rect width="233" height="33" rx="10" ry="10" x="-3" y="-3" stroke-width="1" stroke="#dcffff" stroke-dasharray="" stroke-linecap="" fill="#dcffff" stroke-opacity="0" fill-opacity="0" style="cursor: move;"/><text font-family="Verdana" font-size="10.8" font-style="normal" font-weight="normal" fill="#000000" style="cursor: move; opacity: 1;" visibility="visible" y="6.75" x="7.02"><tspan dy="1em" x="7.02">7. Manque de diversités des sources</tspan></text><g preserveAspectRatio="none" focusable="true" width="0" height="18"/><ellipse width="6" height="6" rx="3" ry="3" cx="5" cy="5" stroke-width="2" stroke="#96e3ff" stroke-dasharray="" stroke-linecap="" fill="#faffff" style="cursor: default; opacity: 0;" visibility="hidden"/></g><rect width="50" height="6" rx="0" ry="0" x="-198" y="-41" stroke-width="1" stroke="#FF9933" stroke-dasharray="" stroke-linecap="" fill="#CC0033" stroke-opacity="0.4" fill-opacity="0.4" visibility="hidden" style="opacity: 0;"/></svg>