<?xml version="1.0" encoding="UTF-8" standalone="yes"?>
<svg xmlns:xlink="http://www.w3.org/1999/xlink" xmlns="http://www.w3.org/2000/svg" focusable="false" preserveAspectRatio="xMinYMin" width="839" height="744" viewBox="-69.86 -369.12 839.25  744.2" style="background-color:white"><path d="M390.9,48.0  C390.9,59.2 ,390.9,137.1  418.9,137.1 " stroke-width="2" stroke="#345780" stroke-dasharray="" stroke-linecap="" stroke-opacity="1" fill="none" fill-opacity="0" visibility="visible" style="opacity: 1;"/><rect width="153" height="29" rx="0" ry="0" x="236" y="34" stroke-width="1" stroke="#FF9933" stroke-dasharray="" stroke-linecap="" fill="#CC0033" stroke-opacity="0.4" fill-opacity="0.4" visibility="hidden" style="opacity: 0;"/><path d="M424.7,171.9  C412.5,131.0  400.2,89.5  387.9,48.0   400.2,89.9  412.5,131.7  424.7,172.9  Z" stroke-width="1" stroke="#CC0033" stroke-dasharray="" stroke-linecap="" stroke-opacity="0.4" fill-opacity="0.4" visibility="hidden" style="opacity: 0;"/><path d="M115.7,103.7  C77.1,69.5  38.6,34.7  0.0,0.0   38.6,35.1  77.1,70.2  115.7,104.7  Z" stroke-width="1" stroke="#CC0033" stroke-dasharray="" stroke-linecap="" stroke-opacity="0.4" fill-opacity="0.4" visibility="hidden" style="opacity: 0;"/><path d="M10.0,0.0  C10.0,30.7 ,10.0,245.8  71.9,245.8 " stroke-width="2" stroke="#EB5130" stroke-dasharray="" stroke-linecap="" stroke-opacity="1" fill="none" fill-opacity="0" visibility="visible" style="opacity: 1;"/><path d="M390.9,48.0  C390.9,54.8 ,390.9,101.7  418.9,101.7 " stroke-width="2" stroke="#345780" stroke-dasharray="" stroke-linecap="" stroke-opacity="1" fill="none" fill-opacity="0" visibility="visible" style="opacity: 1;"/><path d="M390.9,48.0  C390.9,50.3 ,390.9,66.4  418.9,66.4 " stroke-width="2" stroke="#345780" stroke-dasharray="" stroke-linecap="" stroke-opacity="1" fill="none" fill-opacity="0" visibility="visible" style="opacity: 1;"/><path d="M390.9,48.0  C390.9,45.9 ,390.9,30.7  418.9,30.7 " stroke-width="2" stroke="#345780" stroke-dasharray="" stroke-linecap="" stroke-opacity="1" fill="none" fill-opacity="0" visibility="visible" style="opacity: 1;"/><path d="M490.4,-23.0  C490.4,-20.8 ,490.4,-5.3  518.4,-5.3 " stroke-width="2" stroke="#345780" stroke-dasharray="" stroke-linecap="" stroke-opacity="1" fill="none" fill-opacity="0" visibility="visible" style="opacity: 1;"/><path d="M490.4,-23.0  C490.4,-25.2 ,490.4,-41.0  518.4,-41.0 " stroke-width="2" stroke="#345780" stroke-dasharray="" stroke-linecap="" stroke-opacity="1" fill="none" fill-opacity="0" visibility="visible" style="opacity: 1;"/><path d="M390.9,48.0  C390.9,39.2 ,390.9,-23.0  418.9,-23.0 " stroke-width="2" stroke="#345780" stroke-dasharray="" stroke-linecap="" stroke-opacity="1" fill="none" fill-opacity="0" visibility="visible" style="opacity: 1;"/><path d="M450.4,-147.7  C450.4,-147.6 ,450.4,-147.3  478.4,-147.3 " stroke-width="2" stroke="#345780" stroke-dasharray="" stroke-linecap="" stroke-opacity="1" fill="none" fill-opacity="0" visibility="visible" style="opacity: 1;"/><path d="M450.4,-147.7  C450.4,-143.2 ,450.4,-111.7  478.4,-111.7 " stroke-width="2" stroke="#345780" stroke-dasharray="" stroke-linecap="" stroke-opacity="1" fill="none" fill-opacity="0" visibility="visible" style="opacity: 1;"/><path d="M10.0,0.0  C10.0,35.6 ,10.0,285.1  71.9,285.1 " stroke-width="2" stroke="#F8D651" stroke-dasharray="" stroke-linecap="" stroke-opacity="1" fill="none" fill-opacity="0" visibility="visible" style="opacity: 1;"/><path d="M450.4,-147.7  C450.4,-138.8 ,450.4,-76.3  478.4,-76.3 " stroke-width="2" stroke="#345780" stroke-dasharray="" stroke-linecap="" stroke-opacity="1" fill="none" fill-opacity="0" visibility="visible" style="opacity: 1;"/><path d="M450.4,-147.7  C450.4,-152.1 ,450.4,-183.0  478.4,-183.0 " stroke-width="2" stroke="#345780" stroke-dasharray="" stroke-linecap="" stroke-opacity="1" fill="none" fill-opacity="0" visibility="visible" style="opacity: 1;"/><path d="M450.4,-147.7  C450.4,-156.6 ,450.4,-218.7  478.4,-218.7 " stroke-width="2" stroke="#345780" stroke-dasharray="" stroke-linecap="" stroke-opacity="1" fill="none" fill-opacity="0" visibility="visible" style="opacity: 1;"/><path d="M426.4,-290.4  C426.4,-286.0 ,426.4,-254.7  454.4,-254.7 " stroke-width="2" stroke="#345780" stroke-dasharray="" stroke-linecap="" stroke-opacity="1" fill="none" fill-opacity="0" visibility="visible" style="opacity: 1;"/><path d="M426.4,-290.4  C426.4,-290.4 ,426.4,-290.4  454.4,-290.4 " stroke-width="2" stroke="#345780" stroke-dasharray="" stroke-linecap="" stroke-opacity="1" fill="none" fill-opacity="0" visibility="visible" style="opacity: 1;"/><path d="M426.4,-290.4  C426.4,-294.9 ,426.4,-326.1  454.4,-326.1 " stroke-width="2" stroke="#345780" stroke-dasharray="" stroke-linecap="" stroke-opacity="1" fill="none" fill-opacity="0" visibility="visible" style="opacity: 1;"/><path d="M353.0,-201.4  C353.0,-212.5 ,353.0,-290.4  381.0,-290.4 " stroke-width="2" stroke="#345780" stroke-dasharray="" stroke-linecap="" stroke-opacity="1" fill="none" fill-opacity="0" visibility="visible" style="opacity: 1;"/><path d="M353.0,-201.4  C353.0,-194.7 ,353.0,-147.7  381.0,-147.7 " stroke-width="2" stroke="#345780" stroke-dasharray="" stroke-linecap="" stroke-opacity="1" fill="none" fill-opacity="0" visibility="visible" style="opacity: 1;"/><path d="M342.1,190.4  C342.1,192.6 ,342.1,208.1  370.1,208.1 " stroke-width="2" stroke="#345780" stroke-dasharray="" stroke-linecap="" stroke-opacity="1" fill="none" fill-opacity="0" visibility="visible" style="opacity: 1;"/><path d="M342.1,190.4  C342.1,188.2 ,342.1,172.4  370.1,172.4 " stroke-width="2" stroke="#345780" stroke-dasharray="" stroke-linecap="" stroke-opacity="1" fill="none" fill-opacity="0" visibility="visible" style="opacity: 1;"/><path d="M211.5,-59.0  C211.5,-76.8 ,211.5,-201.4  239.5,-201.4 " stroke-width="2" stroke="#345780" stroke-dasharray="" stroke-linecap="" stroke-opacity="1" fill="none" fill-opacity="0" visibility="visible" style="opacity: 1;"/><path d="M211.5,-59.0  C211.5,-45.6 ,211.5,48.0  239.5,48.0 " stroke-width="2" stroke="#345780" stroke-dasharray="" stroke-linecap="" stroke-opacity="1" fill="none" fill-opacity="0" visibility="visible" style="opacity: 1;"/><path d="M211.5,-59.0  C211.5,-27.8 ,211.5,190.4  239.5,190.4 " stroke-width="2" stroke="#345780" stroke-dasharray="" stroke-linecap="" stroke-opacity="1" fill="none" fill-opacity="0" visibility="visible" style="opacity: 1;"/><path d="M159.8,324.5  C159.8,324.7 ,159.8,326.1  187.8,326.1 " stroke-width="2" stroke="#345780" stroke-dasharray="" stroke-linecap="" stroke-opacity="1" fill="none" fill-opacity="0" visibility="visible" style="opacity: 1;"/><path d="M10.0,0.0  C10.0,40.6 ,10.0,324.5  71.9,324.5 " stroke-width="2" stroke="#6BC953" stroke-dasharray="" stroke-linecap="" stroke-opacity="1" fill="none" fill-opacity="0" visibility="visible" style="opacity: 1;"/><path d="M10.0,0.0  C10.0,-7.4 ,10.0,-59.0  71.9,-59.0 " stroke-width="2" stroke="#9B7BEB" stroke-dasharray="" stroke-linecap="" stroke-opacity="1" fill="none" fill-opacity="0" visibility="visible" style="opacity: 1;"/><g preserveAspectRatio="none" focusable="true" width="100" height="100" transform="translate(-39.86,-16.00) scale(1.00,1.00)" test-id="1" visibility="visible" style="opacity: 1;"><rect width="86" height="38" rx="11" ry="11" x="-3" y="-3" stroke-width="1" stroke="#ffffff" stroke-dasharray="" stroke-linecap="" fill="#ffffff" stroke-opacity="0" fill-opacity="0" style="cursor: default;"/><rect width="80" height="32" rx="10" ry="10" x="0" y="0" stroke-width="2" stroke="#FFFFFF" stroke-dasharray="" stroke-linecap="" fill="#FFFFFF" style="cursor: default; opacity: 1;" visibility="visible"/><text font-family="Verdana" font-size="13.4" font-style="normal" font-weight="bold" fill="#000000" style="cursor: default; opacity: 1;" visibility="visible" y="8.00" x="8.32"><tspan dy="1em" x="8.32">Internet</tspan></text><g preserveAspectRatio="none" focusable="true" width="0" height="21"/></g><g preserveAspectRatio="none" focusable="true" width="100" height="100" transform="translate(69.86,-73.67) scale(1.00,1.00)" test-id="2" visibility="visible" style="opacity: 1;"><rect width="144" height="35" rx="11" ry="11" x="-3" y="-3" stroke-width="1" stroke="#e1c1ff" stroke-dasharray="" stroke-linecap="" fill="#e1c1ff" stroke-opacity="0" fill-opacity="0" style="cursor: move;"/><rect width="138" height="29" rx="9" ry="9" x="0" y="0" stroke-width="2" stroke="#9B7BEB" stroke-dasharray="" stroke-linecap="" fill="#9B7BEB" style="cursor: move; opacity: 1;" visibility="visible"/><text font-family="Verdana" font-size="12.1" font-style="normal" font-weight="normal" fill="#000000" style="cursor: move; opacity: 1;" visibility="visible" y="7.33" x="7.63"><tspan dy="1em" x="7.63">Réseaux de réseaux</tspan></text><g preserveAspectRatio="none" focusable="true" width="0" height="19"/><ellipse width="6" height="6" rx="3" ry="3" cx="141" cy="15" stroke-width="2" stroke="#9B7BEB" stroke-dasharray="" stroke-linecap="" fill="#ffdfff" style="cursor: default; opacity: 1;" visibility="visible"/></g><g preserveAspectRatio="none" focusable="true" width="100" height="100" transform="translate(69.86,309.78) scale(1.00,1.00)" test-id="3" visibility="visible" style="opacity: 1;"><rect width="92" height="35" rx="11" ry="11" x="-3" y="-3" stroke-width="1" stroke="#b1ff99" stroke-dasharray="" stroke-linecap="" fill="#b1ff99" stroke-opacity="0" fill-opacity="0" style="cursor: move;"/><rect width="86" height="29" rx="9" ry="9" x="0" y="0" stroke-width="2" stroke="#6BC953" stroke-dasharray="" stroke-linecap="" fill="#6BC953" style="cursor: move; opacity: 1;" visibility="visible"/><text font-family="Verdana" font-size="12.1" font-style="normal" font-weight="normal" fill="#000000" style="cursor: move; opacity: 1;" visibility="visible" y="7.33" x="7.63"><tspan dy="1em" x="7.63">Internautes</tspan></text><g preserveAspectRatio="none" focusable="true" width="0" height="19"/><ellipse width="6" height="6" rx="3" ry="3" cx="89" cy="15" stroke-width="2" stroke="#6BC953" stroke-dasharray="" stroke-linecap="" fill="#cfffb7" style="cursor: default; opacity: 1;" visibility="visible"/></g><g preserveAspectRatio="none" focusable="true" width="100" height="100" transform="translate(185.83,313.08) scale(1.00,1.00)" test-id="4" visibility="visible" style="opacity: 1;"><rect width="203" height="32" rx="10" ry="10" x="-3" y="-3" stroke-width="1" stroke="#dcffff" stroke-dasharray="" stroke-linecap="" fill="#dcffff" stroke-opacity="0" fill-opacity="0" style="cursor: move;"/><text font-family="Verdana" font-size="10.8" font-style="normal" font-weight="normal" fill="#000000" style="cursor: move; opacity: 1;" visibility="visible" y="6.51" x="6.77"><tspan dy="1em" x="6.77">Croissance exponentielle du trafic</tspan></text><g preserveAspectRatio="none" focusable="true" width="0" height="17"/><ellipse width="6" height="6" rx="3" ry="3" cx="5" cy="5" stroke-width="2" stroke="#96e3ff" stroke-dasharray="" stroke-linecap="" fill="#faffff" style="cursor: default; opacity: 0;" visibility="hidden"/></g><g preserveAspectRatio="none" focusable="true" width="100" height="100" transform="translate(237.50,-214.40) scale(1.00,1.00)" test-id="5" visibility="visible" style="opacity: 1;"><rect width="118" height="32" rx="10" ry="10" x="-3" y="-3" stroke-width="1" stroke="#dcffff" stroke-dasharray="" stroke-linecap="" fill="#dcffff" stroke-opacity="0" fill-opacity="0" style="cursor: move;"/><text font-family="Verdana" font-size="10.8" font-style="normal" font-weight="normal" fill="#000000" style="cursor: move; opacity: 1;" visibility="visible" y="6.51" x="6.77"><tspan dy="1em" x="6.77">Réseaux physique</tspan></text><g preserveAspectRatio="none" focusable="true" width="0" height="17"/><ellipse width="6" height="6" rx="3" ry="3" cx="115" cy="13" stroke-width="2" stroke="#96e3ff" stroke-dasharray="" stroke-linecap="" fill="#faffff" style="cursor: default; opacity: 1;" visibility="visible"/></g><g preserveAspectRatio="none" focusable="true" width="100" height="100" transform="translate(237.50,35.38) scale(1.00,1.00)" test-id="6" visibility="visible" style="opacity: 1;"><rect width="155" height="31" rx="9" ry="9" x="-3" y="-3" stroke-width="1" stroke="#dcffff" stroke-dasharray="" stroke-linecap="" fill="#dcffff" stroke-opacity="0" fill-opacity="0" style="cursor: move;"/><text font-family="Verdana" font-size="10.8" font-style="normal" font-weight="normal" fill="#000000" style="cursor: move; opacity: 1;" visibility="visible" y="6.33" x="6.59"><tspan dy="1em" x="6.59">Transmission de données</tspan></text><g preserveAspectRatio="none" focusable="true" width="0" height="16"/><ellipse width="6" height="6" rx="3" ry="3" cx="152" cy="13" stroke-width="2" stroke="#96e3ff" stroke-dasharray="" stroke-linecap="" fill="#faffff" style="cursor: default; opacity: 1;" visibility="visible"/></g><g preserveAspectRatio="none" focusable="true" width="100" height="100" transform="translate(237.50,177.42) scale(1.00,1.00)" test-id="7" visibility="visible" style="opacity: 1;"><rect width="107" height="32" rx="10" ry="10" x="-3" y="-3" stroke-width="1" stroke="#dcffff" stroke-dasharray="" stroke-linecap="" fill="#dcffff" stroke-opacity="0" fill-opacity="0" style="cursor: move;"/><text font-family="Verdana" font-size="10.8" font-style="normal" font-weight="normal" fill="#000000" style="cursor: move; opacity: 1;" visibility="visible" y="6.51" x="6.77"><tspan dy="1em" x="6.77">Type de relation</tspan></text><g preserveAspectRatio="none" focusable="true" width="0" height="17"/><ellipse width="6" height="6" rx="3" ry="3" cx="104" cy="13" stroke-width="2" stroke="#96e3ff" stroke-dasharray="" stroke-linecap="" fill="#faffff" style="cursor: default; opacity: 1;" visibility="visible"/></g><g preserveAspectRatio="none" focusable="true" width="100" height="100" transform="translate(368.05,159.75) scale(1.00,1.00)" test-id="8" visibility="visible" style="opacity: 1;"><rect width="96" height="31" rx="9" ry="9" x="-3" y="-3" stroke-width="1" stroke="#dcffff" stroke-dasharray="" stroke-linecap="" fill="#dcffff" stroke-opacity="0" fill-opacity="0" style="cursor: move;"/><text font-family="Verdana" font-size="10.8" font-style="normal" font-weight="normal" fill="#000000" style="cursor: move; opacity: 1;" visibility="visible" y="6.33" x="6.59"><tspan dy="1em" x="6.59">Client/serveur</tspan></text><g preserveAspectRatio="none" focusable="true" width="0" height="16"/><ellipse width="6" height="6" rx="3" ry="3" cx="93" cy="13" stroke-width="2" stroke="#96e3ff" stroke-dasharray="" stroke-linecap="" fill="#faffff" style="cursor: default; opacity: 0;" visibility="hidden"/></g><g preserveAspectRatio="none" focusable="true" width="100" height="100" transform="translate(368.05,195.08) scale(1.00,1.00)" test-id="9" visibility="visible" style="opacity: 1;"><rect width="75" height="32" rx="10" ry="10" x="-3" y="-3" stroke-width="1" stroke="#dcffff" stroke-dasharray="" stroke-linecap="" fill="#dcffff" stroke-opacity="0" fill-opacity="0" style="cursor: move;"/><text font-family="Verdana" font-size="10.8" font-style="normal" font-weight="normal" fill="#000000" style="cursor: move; opacity: 1;" visibility="visible" y="6.51" x="6.77"><tspan dy="1em" x="6.77">Pair à pair</tspan></text><g preserveAspectRatio="none" focusable="true" width="0" height="17"/><ellipse width="6" height="6" rx="3" ry="3" cx="5" cy="5" stroke-width="2" stroke="#96e3ff" stroke-dasharray="" stroke-linecap="" fill="#faffff" style="cursor: default; opacity: 0;" visibility="hidden"/></g><g preserveAspectRatio="none" focusable="true" width="100" height="100" transform="translate(379.00,-303.08) scale(1.00,1.00)" test-id="10" visibility="visible" style="opacity: 1;"><rect width="49" height="31" rx="9" ry="9" x="-3" y="-3" stroke-width="1" stroke="#dcffff" stroke-dasharray="" stroke-linecap="" fill="#dcffff" stroke-opacity="0" fill-opacity="0" style="cursor: move;"/><text font-family="Verdana" font-size="10.8" font-style="normal" font-weight="normal" fill="#000000" style="cursor: move; opacity: 1;" visibility="visible" y="6.33" x="6.59"><tspan dy="1em" x="6.59">filaire</tspan></text><g preserveAspectRatio="none" focusable="true" width="0" height="16"/><ellipse width="6" height="6" rx="3" ry="3" cx="46" cy="13" stroke-width="2" stroke="#96e3ff" stroke-dasharray="" stroke-linecap="" fill="#faffff" style="cursor: default; opacity: 1;" visibility="visible"/></g><g preserveAspectRatio="none" focusable="true" width="100" height="100" transform="translate(379.00,-160.35) scale(1.00,1.00)" test-id="11" visibility="visible" style="opacity: 1;"><rect width="73" height="31" rx="9" ry="9" x="-3" y="-3" stroke-width="1" stroke="#dcffff" stroke-dasharray="" stroke-linecap="" fill="#dcffff" stroke-opacity="0" fill-opacity="0" style="cursor: move;"/><text font-family="Verdana" font-size="10.8" font-style="normal" font-weight="normal" fill="#000000" style="cursor: move; opacity: 1;" visibility="visible" y="6.33" x="6.59"><tspan dy="1em" x="6.59">non filaire</tspan></text><g preserveAspectRatio="none" focusable="true" width="0" height="16"/><ellipse width="6" height="6" rx="3" ry="3" cx="70" cy="13" stroke-width="2" stroke="#96e3ff" stroke-dasharray="" stroke-linecap="" fill="#faffff" style="cursor: default; opacity: 1;" visibility="visible"/></g><g preserveAspectRatio="none" focusable="true" width="100" height="100" transform="translate(452.41,-339.12) scale(1.00,1.00)" test-id="12" visibility="visible" style="opacity: 1;"><rect width="73" height="32" rx="10" ry="10" x="-3" y="-3" stroke-width="1" stroke="#dcffff" stroke-dasharray="" stroke-linecap="" fill="#dcffff" stroke-opacity="0" fill-opacity="0" style="cursor: move;"/><text font-family="Verdana" font-size="10.8" font-style="normal" font-weight="normal" fill="#000000" style="cursor: move; opacity: 1;" visibility="visible" y="6.51" x="6.77"><tspan dy="1em" x="6.77">téléphone</tspan></text><g preserveAspectRatio="none" focusable="true" width="0" height="17"/><ellipse width="6" height="6" rx="3" ry="3" cx="70" cy="13" stroke-width="2" stroke="#96e3ff" stroke-dasharray="" stroke-linecap="" fill="#faffff" style="cursor: default; opacity: 0;" visibility="hidden"/></g><g preserveAspectRatio="none" focusable="true" width="100" height="100" transform="translate(452.41,-303.08) scale(1.00,1.00)" test-id="13" visibility="visible" style="opacity: 1;"><rect width="66" height="31" rx="9" ry="9" x="-3" y="-3" stroke-width="1" stroke="#dcffff" stroke-dasharray="" stroke-linecap="" fill="#dcffff" stroke-opacity="0" fill-opacity="0" style="cursor: move;"/><text font-family="Verdana" font-size="10.8" font-style="normal" font-weight="normal" fill="#000000" style="cursor: move; opacity: 1;" visibility="visible" y="6.33" x="6.59"><tspan dy="1em" x="6.59">Ethernet</tspan></text><g preserveAspectRatio="none" focusable="true" width="0" height="16"/><ellipse width="6" height="6" rx="3" ry="3" cx="5" cy="5" stroke-width="2" stroke="#96e3ff" stroke-dasharray="" stroke-linecap="" fill="#faffff" style="cursor: default; opacity: 0;" visibility="hidden"/></g><g preserveAspectRatio="none" focusable="true" width="100" height="100" transform="translate(452.41,-267.75) scale(1.00,1.00)" test-id="14" visibility="visible" style="opacity: 1;"><rect width="91" height="32" rx="10" ry="10" x="-3" y="-3" stroke-width="1" stroke="#dcffff" stroke-dasharray="" stroke-linecap="" fill="#dcffff" stroke-opacity="0" fill-opacity="0" style="cursor: move;"/><text font-family="Verdana" font-size="10.8" font-style="normal" font-weight="normal" fill="#000000" style="cursor: move; opacity: 1;" visibility="visible" y="6.51" x="6.77"><tspan dy="1em" x="6.77">Fibre optique</tspan></text><g preserveAspectRatio="none" focusable="true" width="0" height="17"/><ellipse width="6" height="6" rx="3" ry="3" cx="5" cy="5" stroke-width="2" stroke="#96e3ff" stroke-dasharray="" stroke-linecap="" fill="#faffff" style="cursor: default; opacity: 0;" visibility="hidden"/></g><g preserveAspectRatio="none" focusable="true" width="100" height="100" transform="translate(476.43,-231.72) scale(1.00,1.00)" test-id="15" visibility="visible" style="opacity: 1;"><rect width="181" height="32" rx="10" ry="10" x="-3" y="-3" stroke-width="1" stroke="#dcffff" stroke-dasharray="" stroke-linecap="" fill="#dcffff" stroke-opacity="0" fill-opacity="0" style="cursor: move;"/><text font-family="Verdana" font-size="10.8" font-style="normal" font-weight="normal" fill="#000000" style="cursor: move; opacity: 1;" visibility="visible" y="6.51" x="6.77"><tspan dy="1em" x="6.77">Bluetooth (limité en distance)</tspan></text><g preserveAspectRatio="none" focusable="true" width="0" height="17"/><ellipse width="6" height="6" rx="3" ry="3" cx="5" cy="5" stroke-width="2" stroke="#96e3ff" stroke-dasharray="" stroke-linecap="" fill="#faffff" style="cursor: default; opacity: 0;" visibility="hidden"/></g><g preserveAspectRatio="none" focusable="true" width="100" height="100" transform="translate(476.43,-195.68) scale(1.00,1.00)" test-id="16" visibility="visible" style="opacity: 1;"><rect width="40" height="31" rx="9" ry="9" x="-3" y="-3" stroke-width="1" stroke="#dcffff" stroke-dasharray="" stroke-linecap="" fill="#dcffff" stroke-opacity="0" fill-opacity="0" style="cursor: move;"/><text font-family="Verdana" font-size="10.8" font-style="normal" font-weight="normal" fill="#000000" style="cursor: move; opacity: 1;" visibility="visible" y="6.33" x="6.59"><tspan dy="1em" x="6.59">Wifi</tspan></text><g preserveAspectRatio="none" focusable="true" width="0" height="16"/><ellipse width="6" height="6" rx="3" ry="3" cx="5" cy="5" stroke-width="2" stroke="#96e3ff" stroke-dasharray="" stroke-linecap="" fill="#faffff" style="cursor: default; opacity: 0;" visibility="hidden"/></g><g preserveAspectRatio="none" focusable="true" width="100" height="100" transform="translate(476.43,-88.98) scale(1.00,1.00)" test-id="17" visibility="visible" style="opacity: 1;"><rect width="63" height="31" rx="9" ry="9" x="-3" y="-3" stroke-width="1" stroke="#dcffff" stroke-dasharray="" stroke-linecap="" fill="#dcffff" stroke-opacity="0" fill-opacity="0" style="cursor: move;"/><text font-family="Verdana" font-size="10.8" font-style="normal" font-weight="normal" fill="#000000" style="cursor: move; opacity: 1;" visibility="visible" y="6.33" x="6.59"><tspan dy="1em" x="6.59">Satellite</tspan></text><g preserveAspectRatio="none" focusable="true" width="0" height="16"/><ellipse width="6" height="6" rx="3" ry="3" cx="60" cy="13" stroke-width="2" stroke="#96e3ff" stroke-dasharray="" stroke-linecap="" fill="#faffff" style="cursor: default; opacity: 0;" visibility="hidden"/></g><g preserveAspectRatio="none" focusable="true" width="100" height="100" transform="translate(476.43,-124.32) scale(1.00,1.00)" test-id="18" visibility="visible" style="opacity: 1;"><rect width="62" height="31" rx="9" ry="9" x="-3" y="-3" stroke-width="1" stroke="#dcffff" stroke-dasharray="" stroke-linecap="" fill="#dcffff" stroke-opacity="0" fill-opacity="0" style="cursor: move;"/><text font-family="Verdana" font-size="10.8" font-style="normal" font-weight="normal" fill="#000000" style="cursor: move; opacity: 1;" visibility="visible" y="6.33" x="6.59"><tspan dy="1em" x="6.59">4G / 5G</tspan></text><g preserveAspectRatio="none" focusable="true" width="0" height="16"/><ellipse width="6" height="6" rx="3" ry="3" cx="5" cy="5" stroke-width="2" stroke="#96e3ff" stroke-dasharray="" stroke-linecap="" fill="#faffff" style="cursor: default; opacity: 0;" visibility="hidden"/></g><g preserveAspectRatio="none" focusable="true" width="100" height="100" transform="translate(69.86,270.45) scale(1.00,1.00)" test-id="19" visibility="visible" style="opacity: 1;"><rect width="145" height="35" rx="11" ry="11" x="-3" y="-3" stroke-width="1" stroke="#ffff97" stroke-dasharray="" stroke-linecap="" fill="#ffff97" stroke-opacity="0" fill-opacity="0" style="cursor: move;"/><rect width="139" height="29" rx="9" ry="9" x="0" y="0" stroke-width="2" stroke="#F8D651" stroke-dasharray="" stroke-linecap="" fill="#F8D651" style="cursor: move; opacity: 1;" visibility="visible"/><text font-family="Verdana" font-size="12.1" font-style="normal" font-weight="normal" fill="#000000" style="cursor: move; opacity: 1;" visibility="visible" y="7.33" x="7.63"><tspan dy="1em" x="7.63">Noeud titre principal</tspan></text><g preserveAspectRatio="none" focusable="true" width="0" height="19"/><ellipse width="6" height="6" rx="3" ry="3" cx="5" cy="5" stroke-width="2" stroke="#F8D651" stroke-dasharray="" stroke-linecap="" fill="#ffffb5" style="cursor: default; opacity: 0;" visibility="hidden"/></g><g preserveAspectRatio="none" focusable="true" width="100" height="100" transform="translate(476.43,-160.35) scale(1.00,1.00)" test-id="20" visibility="visible" style="opacity: 1;"><rect width="161" height="32" rx="10" ry="10" x="-3" y="-3" stroke-width="1" stroke="#dcffff" stroke-dasharray="" stroke-linecap="" fill="#dcffff" stroke-opacity="0" fill-opacity="0" style="cursor: move;"/><text font-family="Verdana" font-size="10.8" font-style="normal" font-weight="normal" fill="#000000" style="cursor: move; opacity: 1;" visibility="visible" y="6.51" x="6.77"><tspan dy="1em" x="6.77">Lifi (Encore expérimental)</tspan></text><g preserveAspectRatio="none" focusable="true" width="0" height="17"/><ellipse width="6" height="6" rx="3" ry="3" cx="5" cy="5" stroke-width="2" stroke="#96e3ff" stroke-dasharray="" stroke-linecap="" fill="#faffff" style="cursor: default; opacity: 0;" visibility="hidden"/></g><g preserveAspectRatio="none" focusable="true" width="100" height="100" transform="translate(416.94,-35.98) scale(1.00,1.00)" test-id="21" visibility="visible" style="opacity: 1;"><rect width="75" height="32" rx="10" ry="10" x="-3" y="-3" stroke-width="1" stroke="#dcffff" stroke-dasharray="" stroke-linecap="" fill="#dcffff" stroke-opacity="0" fill-opacity="0" style="cursor: move;"/><text font-family="Verdana" font-size="10.8" font-style="normal" font-weight="normal" fill="#000000" style="cursor: move; opacity: 1;" visibility="visible" y="6.51" x="6.77"><tspan dy="1em" x="6.77">protocoles</tspan></text><g preserveAspectRatio="none" focusable="true" width="0" height="17"/><ellipse width="6" height="6" rx="3" ry="3" cx="72" cy="13" stroke-width="2" stroke="#96e3ff" stroke-dasharray="" stroke-linecap="" fill="#faffff" style="cursor: default; opacity: 1;" visibility="visible"/></g><g preserveAspectRatio="none" focusable="true" width="100" height="100" transform="translate(516.39,-53.65) scale(1.00,1.00)" test-id="22" visibility="visible" style="opacity: 1;"><rect width="189" height="31" rx="9" ry="9" x="-3" y="-3" stroke-width="1" stroke="#dcffff" stroke-dasharray="" stroke-linecap="" fill="#dcffff" stroke-opacity="0" fill-opacity="0" style="cursor: move;"/><text font-family="Verdana" font-size="10.8" font-style="normal" font-weight="normal" fill="#000000" style="cursor: move; opacity: 1;" visibility="visible" y="6.33" x="6.59"><tspan dy="1em" x="6.59">IP : un ordinateur, une adresse</tspan></text><g preserveAspectRatio="none" focusable="true" width="0" height="16"/><ellipse width="6" height="6" rx="3" ry="3" cx="5" cy="5" stroke-width="2" stroke="#96e3ff" stroke-dasharray="" stroke-linecap="" fill="#faffff" style="cursor: default; opacity: 0;" visibility="hidden"/></g><g preserveAspectRatio="none" focusable="true" width="100" height="100" transform="translate(516.39,-18.32) scale(1.00,1.00)" test-id="23" visibility="visible" style="opacity: 1;"><rect width="223" height="32" rx="10" ry="10" x="-3" y="-3" stroke-width="1" stroke="#dcffff" stroke-dasharray="" stroke-linecap="" fill="#dcffff" stroke-opacity="0" fill-opacity="0" style="cursor: move;"/><text font-family="Verdana" font-size="10.8" font-style="normal" font-weight="normal" fill="#000000" style="cursor: move; opacity: 1;" visibility="visible" y="6.51" x="6.77"><tspan dy="1em" x="6.77">TCP : Responsable de la transmission</tspan></text><g preserveAspectRatio="none" focusable="true" width="0" height="17"/><ellipse width="6" height="6" rx="3" ry="3" cx="5" cy="5" stroke-width="2" stroke="#96e3ff" stroke-dasharray="" stroke-linecap="" fill="#faffff" style="cursor: default; opacity: 0;" visibility="hidden"/></g><g preserveAspectRatio="none" focusable="true" width="100" height="100" transform="translate(416.94,17.72) scale(1.00,1.00)" test-id="24" visibility="visible" style="opacity: 1;"><rect width="158" height="32" rx="10" ry="10" x="-3" y="-3" stroke-width="1" stroke="#dcffff" stroke-dasharray="" stroke-linecap="" fill="#dcffff" stroke-opacity="0" fill-opacity="0" style="cursor: move;"/><text font-family="Verdana" font-size="10.8" font-style="normal" font-weight="normal" fill="#000000" style="cursor: move; opacity: 1;" visibility="visible" y="6.51" x="6.77"><tspan dy="1em" x="6.77">Transmission par paquets</tspan></text><g preserveAspectRatio="none" focusable="true" width="0" height="17"/><ellipse width="6" height="6" rx="3" ry="3" cx="5" cy="5" stroke-width="2" stroke="#96e3ff" stroke-dasharray="" stroke-linecap="" fill="#faffff" style="cursor: default; opacity: 0;" visibility="hidden"/></g><g preserveAspectRatio="none" focusable="true" width="100" height="100" transform="translate(416.94,53.75) scale(1.00,1.00)" test-id="25" visibility="visible" style="opacity: 1;"><rect width="134" height="31" rx="9" ry="9" x="-3" y="-3" stroke-width="1" stroke="#dcffff" stroke-dasharray="" stroke-linecap="" fill="#dcffff" stroke-opacity="0" fill-opacity="0" style="cursor: move;"/><text font-family="Verdana" font-size="10.8" font-style="normal" font-weight="normal" fill="#000000" style="cursor: move; opacity: 1;" visibility="visible" y="6.33" x="6.59"><tspan dy="1em" x="6.59">Serveur de nom DNS</tspan></text><g preserveAspectRatio="none" focusable="true" width="0" height="16"/><ellipse width="6" height="6" rx="3" ry="3" cx="5" cy="5" stroke-width="2" stroke="#96e3ff" stroke-dasharray="" stroke-linecap="" fill="#faffff" style="cursor: default; opacity: 0;" visibility="hidden"/></g><g preserveAspectRatio="none" focusable="true" width="100" height="100" transform="translate(416.94,89.08) scale(1.00,1.00)" test-id="26" visibility="visible" style="opacity: 1;"><rect width="68" height="31" rx="9" ry="9" x="-3" y="-3" stroke-width="1" stroke="#dcffff" stroke-dasharray="" stroke-linecap="" fill="#dcffff" stroke-opacity="0" fill-opacity="0" style="cursor: move;"/><text font-family="Verdana" font-size="10.8" font-style="normal" font-weight="normal" fill="#000000" style="cursor: move; opacity: 1;" visibility="visible" y="6.33" x="6.59"><tspan dy="1em" x="6.59">Routeurs</tspan></text><g preserveAspectRatio="none" focusable="true" width="0" height="16"/><ellipse width="6" height="6" rx="3" ry="3" cx="5" cy="5" stroke-width="2" stroke="#96e3ff" stroke-dasharray="" stroke-linecap="" fill="#faffff" style="cursor: default; opacity: 0;" visibility="hidden"/></g><g preserveAspectRatio="none" focusable="true" width="100" height="100" transform="translate(416.94,124.42) scale(1.00,1.00)" test-id="27" visibility="visible" style="opacity: 1;"><rect width="55" height="31" rx="9" ry="9" x="-3" y="-3" stroke-width="1" stroke="#dcffff" stroke-dasharray="" stroke-linecap="" fill="#dcffff" stroke-opacity="0" fill-opacity="0" style="cursor: move;"/><text font-family="Verdana" font-size="10.8" font-style="normal" font-weight="normal" fill="#000000" style="cursor: move; opacity: 1;" visibility="visible" y="6.33" x="6.59"><tspan dy="1em" x="6.59">Switch</tspan></text><g preserveAspectRatio="none" focusable="true" width="0" height="16"/><ellipse width="6" height="6" rx="3" ry="3" cx="5" cy="5" stroke-width="2" stroke="#96e3ff" stroke-dasharray="" stroke-linecap="" fill="#faffff" style="cursor: default; opacity: 0;" visibility="hidden"/></g><g preserveAspectRatio="none" focusable="true" width="100" height="100" transform="translate(69.86,231.12) scale(1.00,1.00)" test-id="28" visibility="visible" style="opacity: 1;"><rect width="145" height="35" rx="11" ry="11" x="-3" y="-3" stroke-width="1" stroke="#ff9776" stroke-dasharray="" stroke-linecap="" fill="#ff9776" stroke-opacity="0" fill-opacity="0" style="cursor: move;"/><rect width="139" height="29" rx="9" ry="9" x="0" y="0" stroke-width="2" stroke="#EB5130" stroke-dasharray="" stroke-linecap="" fill="#EB5130" style="cursor: move; opacity: 1;" visibility="visible"/><text font-family="Verdana" font-size="12.1" font-style="normal" font-weight="normal" fill="#000000" style="cursor: move; opacity: 1;" visibility="visible" y="7.33" x="7.63"><tspan dy="1em" x="7.63">Noeud titre principal</tspan></text><g preserveAspectRatio="none" focusable="true" width="0" height="19"/><ellipse width="6" height="6" rx="3" ry="3" cx="5" cy="5" stroke-width="2" stroke="#EB5130" stroke-dasharray="" stroke-linecap="" fill="#ffb594" style="cursor: default; opacity: 0;" visibility="hidden"/></g><rect width="50" height="6" rx="0" ry="0" x="423" y="169" stroke-width="1" stroke="#FF9933" stroke-dasharray="" stroke-linecap="" fill="#CC0033" stroke-opacity="0.4" fill-opacity="0.4" visibility="hidden" style="opacity: 0;"/></svg>